<?xml version="1.0" encoding="utf-8"?>
<!-- Generator: Adobe Illustrator 25.4.1, SVG Export Plug-In . SVG Version: 6.00 Build 0)  -->
<svg version="1.1" id="Layer_1" xmlns="http://www.w3.org/2000/svg" xmlns:xlink="http://www.w3.org/1999/xlink" x="0px" y="0px"
	 viewBox="0 0 238.11 76.54" style="enable-background:new 0 0 238.11 76.54;" xml:space="preserve">
<style type="text/css">
	.st0{fill:#36A9E1;}
	.st1{fill:#E30613;}
	.st2{fill:#2FAC66;}
	.st3{fill:#E94E1B;}
	.st4{fill:#E6332A;}
	.st5{font-family:'HelveticaNeue-CondensedBlack';}
	.st6{font-size:61.4582px;}
	.st7{fill:#878787;}
	.st8{font-family:'HelveticaNeue-Light';}
	.st9{font-size:15.9212px;}
</style>
<g>
	<path class="st0" d="M71.62,36.17c0-6.38-1.95-12.3-5.28-17.2l-0.53-0.09v35.24C69.46,49.08,71.62,42.88,71.62,36.17z"/>
	<path class="st0" d="M13.86,41.09l15.31-10.41l1.63,1.63v-2.74l15.31-10.41l1.63,1.63v-2.74l10.54-7.17
		c-4.93-3.38-10.9-5.37-17.33-5.37c-16.94,0-30.66,13.73-30.66,30.66c0,5.19,1.3,10.08,3.57,14.37V41.09z"/>
	<path class="st1" d="M43.04,0.44c-2.44,0-4.83,0.24-7.15,0.68c1.57-0.21,3.16-0.33,4.79-0.33c19.4,0,35.12,15.72,35.12,35.12
		c0,19.4-15.72,35.12-35.12,35.12S5.57,55.31,5.57,35.91c0-1.63,0.12-3.22,0.33-4.79c-0.44,2.32-0.68,4.7-0.68,7.15
		c0,20.89,16.94,37.83,37.83,37.83s37.83-16.94,37.83-37.83C80.87,17.38,63.94,0.44,43.04,0.44z"/>
	<path class="st0" d="M43.04,0.44c-2.44,0-4.83,0.24-7.15,0.68c1.57-0.21,3.16-0.33,4.79-0.33c19.4,0,35.12,15.72,35.12,35.12
		c0,19.4-15.72,35.12-35.12,35.12S5.57,55.31,5.57,35.91c0-1.63,0.12-3.22,0.33-4.79c-0.44,2.32-0.68,4.7-0.68,7.15
		c0,20.89,16.94,37.83,37.83,37.83s37.83-16.94,37.83-37.83C80.87,17.38,63.94,0.44,43.04,0.44z"/>
	<path class="st2" d="M62.67,63.3V11.69l-11.79,8.02v49.82C55.22,68.21,59.21,66.07,62.67,63.3z"/>
	<path class="st2" d="M40.69,71.03c1.71,0,3.39-0.13,5.04-0.37V23.21l-11.79,8.02v39.15C36.12,70.8,38.38,71.03,40.69,71.03z"/>
	<path class="st2" d="M28.79,68.96V34.74L17,42.75v19.08C20.38,64.94,24.38,67.38,28.79,68.96z"/>
	<g>
		<path class="st3" d="M6.92,37.36c0,0-2.8,2.04-2.8,7.78c0,5.74,11.44,6.15,24.92,1.21C47.59,39.56,71.3,24.16,71.3,24.16
			l-2.87-3.63l17.02-1.72l-6.12,15.3l-2.68-3.54c0,0-11.47,8.89-31.74,18.26c-20.27,9.37-32.13,10.2-39.2,7.65
			C-1.24,53.98-1.24,44.05,6.92,37.36z"/>
		<path class="st4" d="M83.28,19.03l-4.52,11.71l-1.89-2.44c0,0-11.37,9.03-31.52,18.64c-20.16,9.61-32,10.58-39.11,8.12
			c-4.2-1.46-5.89-5.62-4.83-10.19c-1.83,5.06-0.29,9.96,4.3,11.61c7.08,2.55,18.93,1.72,39.2-7.65
			c20.27-9.37,31.74-18.26,31.74-18.26l2.68,3.54l6.12-15.3L83.28,19.03z"/>
	</g>
	<path class="st0" d="M5.22,38.27c0,0.38,0.03,1.66,0.07,2.28s0.63,0.3,0.63,0.3s-0.23-2-0.26-2.52c-0.03-0.52-0.26-1.36-0.26-1.36
		l-0.11,1.29"/>
</g>
<g>
	<text transform="matrix(1 0 0 1 119.3185 53.1086)" class="st0 st5 st6">GFI</text>
	<text transform="matrix(1 0 0 1 80.8731 71.2405)" class="st7 st8 st9">Global Finance Adviser</text>
</g>
</svg>
